<?xml version="1.0" encoding="UTF-8" standalone="no"?>
<svg
        id="Layer_1"
        data-name="Layer 1"
        viewBox="0 0 450 700"
        version="1.1"
        xmlns="http://www.w3.org/2000/svg"
        xmlns:svg="http://www.w3.org/2000/svg">
  <defs
          id="defs7">
    <clipPath
            clipPathUnits="userSpaceOnUse"
            id="clipPath820">
      <ellipse
              fill="none"
              stroke="#000000"
              strokeWidth="1"
              paintOrder="markers fill stroke"
              id="ellipse822"
              cx="225.38829"
              cy="84.886497"
              rx="201.13499"
              ry="56.451618" />
    </clipPath>
  </defs>
  <path
          d="M364.84,173.63l-11.35-14.57A50.63,50.63,0,0,1,343,130.79c14.1-3.59,16.55-7.43,16.55-10.91v-6.13a5.52,5.52,0,0,0-2.77-4.78,5.61,5.61,0,0,0-1.16-.49l-.88-3c3.9-2.26,4.81-4.51,4.81-6.63V92.75a5.55,5.55,0,0,0-1.27-3.51h0a15.44,15.44,0,0,0-5.41-12.46l-.73-.64,1.81-3.28.72-1.31V51.42h-.18c0-4.26-3.09-9.13-40-13.14-23.91-2.59-55.67-4-89.43-4s-65.52,1.43-89.43,4c-35.37,3.84-39.69,8.48-40,12.6h-.2V71l1,1.85,1.51,2.75c-.35.29-.68.59-1,.89A15.38,15.38,0,0,0,91.77,88.7h0a5.52,5.52,0,0,0-1.77,4v6.13c0,2.12.91,4.37,4.81,6.63l-.88,3a5.61,5.61,0,0,0-1.16.49A5.52,5.52,0,0,0,90,113.75v6.13c0,3.52,2.5,7.41,17,11a50.62,50.62,0,0,1-10.53,28.14L85.16,173.63a125.32,125.32,0,0,0-26.29,76.59V576.09a89.64,89.64,0,0,0,89.64,89.65h153a89.64,89.64,0,0,0,89.64-89.65V250.22A125.32,125.32,0,0,0,364.84,173.63Z"
          id="path2"
          fill="#550000"
          clip-path="url(#clipPath820)" />
  <path
          fill="#666666"
          stroke="#000000"
          paintOrder="markers fill stroke"
          id="path1139"
          d="m 155.82539,191.89882 a 32.37738,12.714405 0 0 1 -0.005,0.2219 z" />
  <path
          fill="none"
          stroke="#000000"
          strokeWidth="1.00146"
          paintOrder="markers fill stroke"
          id="path1145"
          d="M 364.58525,88.989403 A 133.35341,8.4516792 0 0 1 236.12572,97.435389 133.35341,8.4516792 0 0 1 98.23763,89.609314"
          transform="matrix(1,0,-0.07638056,0.99707874,0,0)" />
  <path
          fill="#666666"
          stroke="#000000"
          paintOrder="markers fill stroke"
          id="path1161"
          d="m 352.0908,75.896057 a 126.59797,0.62724012 0 0 1 -0.0193,0.01095 z" />
  <path
          fill="#666666"
          stroke="#000000"
          paintOrder="markers fill stroke"
          id="path1165"
          d="m 68.369176,53.210873 a 13.590203,9.7222223 0 0 1 -0.0021,0.169676 z" />
  <path
          fill="#666666"
          stroke="#000000"
          paintOrder="markers fill stroke"
          id="path1167"
          d="m 69.205494,50.38829 a 6.7951016,5.2270012 0 0 1 -0.001,0.09122 z" />
  <path
          fill="#666666"
          stroke="#000000"
          paintOrder="markers fill stroke"
          id="path1171"
          d="m 63.978496,21.535246 a 13.903823,4.599761 0 0 1 -0.0021,0.08028" />
  <path
          fill="#666666"
          stroke="#000000"
          paintOrder="markers fill stroke"
          id="path1173"
          d="m 52.060932,47.67025 a 8.1541214,3.5543609 0 0 1 -0.0012,0.06203" />
  <path
          fill="none"
          stroke="#000000"
          paintOrder="markers fill stroke"
          id="path1215"
          d="M 352.09081,75.37336 A 127.01613,8.2586622 0 0 1 227.01862,83.631055 127.01613,8.2586622 0 0 1 98.118051,75.626123" />
  <path
          fill="none"
          stroke="#000000"
          strokeWidth="1"
          paintOrder="markers fill stroke"
          id="path1302"
          d="M 354.75391,105.0023 A 129.70613,11.660822 0 0 1 227.03289,116.66175 129.70613,11.660822 0 0 1 95.402408,105.35919" />
</svg>
